<svg width="21" height="32" viewBox="0 0 21 32" fill="none" xmlns="http://www.w3.org/2000/svg">
<path d="M0.759051 0C0.3196 0 0 0.3196 0 0.759051V31.2409C0 31.6804 0.3196 32 0.759051 32H19.2559C19.6954 32 20.015 31.6804 20.015 31.2409V0.759051C20.015 0.3196 19.6954 0 19.2559 0H0.759051V0ZM3.99501 3.99501H15.98V23.97H3.99501V3.99501ZM9.98751 25.9675C11.1061 25.9675 11.985 26.8464 11.985 27.965C11.985 29.0836 11.1061 29.9625 9.98751 29.9625C8.86891 29.9625 7.99001 29.0836 7.99001 27.965C7.99001 26.8464 8.86891 25.9675 9.98751 25.9675Z" fill="#75CBC8"/>
</svg>
