<svg width="32" height="32" viewBox="0 0 32 32" fill="none" xmlns="http://www.w3.org/2000/svg">
<path d="M20.4265 0.0121548C19.5583 0.103549 18.7357 0.697609 18.2788 1.56585C17.6847 2.75397 13.2978 11.5735 12.4296 12.4417C11.5613 13.31 10.4189 13.7212 9.13938 13.7212V32H25.1333C26.0929 32 26.9155 31.4059 27.2811 30.5834C27.2811 30.5834 31.9878 17.2856 31.9878 16.0061C31.9878 14.7266 30.9825 13.7212 29.703 13.7212H22.8485C21.5689 13.7212 20.5636 12.5788 20.5636 11.4364C20.5636 10.294 22.3458 4.21627 22.7114 3.02815C23.0769 1.84003 22.4829 0.560518 21.2948 0.149246C20.9749 0.0578517 20.7464 -0.0335422 20.4265 0.0121548ZM0 13.7212V32H4.56969V13.7212H0Z" fill="#75CBC8"/>
</svg>
