<svg width="38" height="32" viewBox="0 0 38 32" fill="none" xmlns="http://www.w3.org/2000/svg">
<path d="M9.38416 0C6.80352 0 4.5044 1.07918 2.76833 2.76833C1.07918 4.45748 0 6.7566 0 9.38416C0 11.9648 1.07918 14.2639 2.76833 16L18.7683 32L34.7683 16C36.4575 14.3109 37.5367 12.0117 37.5367 9.38416C37.5367 6.80352 36.4575 4.5044 34.7683 2.76833C33.0792 1.07918 30.7801 0 28.1525 0C25.5718 0 23.2727 1.07918 21.5367 2.76833C19.8475 4.45748 18.7683 6.7566 18.7683 9.38416C18.7683 6.80352 17.6891 4.5044 16 2.76833C14.3108 1.07918 12.0117 0 9.38416 0V0Z" fill="#75CBC8"/>
</svg>
