<svg width="48" height="48" viewBox="0 0 48 48" fill="none" xmlns="http://www.w3.org/2000/svg">
<circle cx="24" cy="24" r="24" fill="white"/>
<path d="M23.9827 28.9963C23.6162 28.997 23.261 28.8692 22.9788 28.635L13.5667 20.782C13.2463 20.5154 13.0449 20.1323 13.0066 19.717C12.9684 19.3016 13.0965 18.8881 13.3628 18.5674C13.629 18.2466 14.0116 18.0449 14.4264 18.0066C14.8412 17.9684 15.2543 18.0966 15.5746 18.3632L23.9827 25.3996L32.3909 18.6145C32.5513 18.484 32.736 18.3866 32.9342 18.3278C33.1323 18.269 33.3402 18.25 33.5457 18.2719C33.7513 18.2938 33.9505 18.3562 34.1319 18.4554C34.3133 18.5546 34.4733 18.6888 34.6027 18.8501C34.7464 19.0116 34.8552 19.2011 34.9223 19.4066C34.9894 19.6122 35.0135 19.8294 34.9928 20.0446C34.9722 20.2599 34.9074 20.4686 34.8025 20.6576C34.6976 20.8467 34.5548 21.012 34.3831 21.1432L24.971 28.7293C24.6807 28.9264 24.3327 29.0204 23.9827 28.9963Z" fill="#121337"/>
</svg>
