<svg width="116" height="32" viewBox="0 0 116 32" fill="none" xmlns="http://www.w3.org/2000/svg">
<path d="M66.3224 28.0695L66.1947 23.3999C66.1387 21.3292 64.4712 19.7076 62.4005 19.7076C61.3687 19.7076 60.5349 20.5486 60.5421 21.5803L60.5852 27.8428L58.4987 27.8571L58.4527 21.2144C58.4384 19.2341 60.0413 17.6211 62.0216 17.6211H62.4019C63.9431 17.6211 65.3997 18.2123 66.5046 19.2872C67.6096 20.362 68.241 21.8028 68.2826 23.3425L68.4103 28.0121L66.3224 28.0695Z" fill="white"/>
<path d="M74.5967 28.1757H71.7726C70.5356 28.1757 69.5311 27.2013 69.5311 26.0002C69.5311 26.0002 72.8116 26.1839 74.6943 25.8954C74.723 25.8911 74.8378 23.5104 72.4973 23.6582C70.781 23.7673 69.4307 22.4313 69.4307 20.7609C69.4307 19.0734 70.8456 17.68 72.5834 17.6541L75.0646 17.6182C76.3015 17.601 77.3204 18.5596 77.3376 19.7607C77.3376 19.7607 73.9323 19.4795 72.6164 19.8282C72.1041 19.9631 71.6578 20.2673 71.6722 20.7839C71.6851 21.2488 72.0926 21.5861 72.5705 21.6119C74.017 21.6908 74.8364 22.0568 75.6687 22.8532C76.5039 23.6539 76.8598 24.525 76.8454 25.6644C76.8239 27.2429 75.2769 28.1757 74.5967 28.1757Z" fill="white"/>
<path d="M87.3009 24.9856C87.3023 20.8356 85.3162 19.4522 82.7777 19.3977L80.3812 19.3474V13.5787H78.2947V28.0925H80.3812V21.4354L82.7332 21.4842C84.1252 21.5129 85.332 22.9479 85.2129 24.9483L85.2143 28.0121L87.3009 28.048V24.9856Z" fill="white"/>
<path d="M95.7489 17.7417V22.7484C95.7489 24.9828 93.2978 26.3934 91.3964 25.221C91.3003 25.1621 91.2099 25.0976 91.1252 25.0287C90.5211 24.5336 90.2269 23.7831 90.2269 22.7355C90.2269 21.7942 90.4881 21.1068 91.0276 20.639C92.0451 19.7521 94.2708 19.8468 94.9036 19.9344L94.9955 17.8062C94.8649 17.7876 91.6203 17.3642 89.6658 19.0561C88.6527 19.9329 88.1404 21.1714 88.1404 22.7355C88.1404 24.4274 88.7015 25.7433 89.8093 26.6488C91.052 27.6634 92.4268 28.0953 93.6839 27.8916C94.5808 27.7452 95.5149 27.2702 95.7976 27.0334C95.7718 27.55 96.1765 27.9877 96.6931 28.0006L97.8354 28.0293V17.7417H95.7489Z" fill="white"/>
<path d="M99.8402 27.903L99.8215 21.4569V21.444C99.8431 20.4495 100.253 19.5182 100.977 18.8222C101.7 18.1262 102.657 17.7431 103.67 17.7431H104.805C106.005 17.7431 106.978 18.6615 106.978 19.7937H103.67C102.722 19.7937 101.934 20.5486 101.908 21.4785L101.927 27.8987L99.8402 27.903Z" fill="white"/>
<path d="M115.502 25.6701L111.617 25.7189C111.61 25.7189 111.601 25.7189 111.594 25.7189C111.149 25.7189 110.73 25.5568 110.412 25.2626C110.199 25.066 110.047 24.8249 109.967 24.5609C109.971 24.5609 109.974 24.5623 109.978 24.5623C110.908 24.5623 112.772 24.7532 113.908 23.8649C114.618 23.3095 115.034 22.5375 115.113 21.6334C115.246 20.098 114.641 19.2068 114.108 18.7304C112.8 17.5565 110.631 17.7417 110.409 17.7704L110.363 19.5842C110.363 19.5842 112.175 19.7091 112.675 20.1625C112.965 20.4251 113.085 20.8671 113.032 21.4727C112.999 21.8516 112.856 22.1285 112.577 22.3466C112.483 22.4213 112.372 22.4815 112.252 22.5303C111.128 22.9809 109.884 22.1773 109.877 21.025L109.854 17.7704L107.767 17.7833L107.81 24.1304C107.817 25.0947 108.222 25.9973 108.95 26.6704C109.661 27.329 110.598 27.6906 111.591 27.6906C111.609 27.6906 111.626 27.6906 111.643 27.6906L113.441 27.6677C114.596 27.6519 115.518 26.7579 115.502 25.6701Z" fill="white"/>
<path d="M47.304 28.2905H36.7652C33.9813 28.2905 31.7168 26.1982 31.7168 23.6252V22.9436H33.8033V23.6252C33.8033 25.0473 35.1321 26.2039 36.7652 26.2039H43.7825C44.5488 26.2039 45.1644 25.5754 45.15 24.8105C45.0969 22.1299 42.3675 21.1785 40.0471 21.1785H38.2763C37.6994 21.1785 37.233 20.7107 37.233 20.1352C37.233 19.5584 37.7008 19.092 38.2763 19.092H39.0397C39.9337 19.092 40.6627 18.4792 40.6627 17.7244V16.5247C40.6627 15.7699 39.9337 15.1543 39.0368 15.1543H33.8033V20.1352H31.7168V13.0678H39.0368C41.0832 13.0678 42.7492 14.619 42.7492 16.5247V17.7244C42.7492 18.3056 42.5943 18.8538 42.3202 19.3345C45.282 20.0075 47.1806 22.0237 47.2337 24.7689L47.304 28.2905Z" fill="white"/>
<path d="M52.8016 17.2294C50.0779 17.2294 47.8708 19.6804 47.8708 22.7025C47.8708 25.7247 50.0779 28.1757 52.8016 28.1757C55.5253 28.1757 57.7323 25.7247 57.7323 22.7025C57.7323 19.6804 55.5238 17.2294 52.8016 17.2294ZM52.9164 26.4666C51.3206 26.4666 50.0277 24.8393 50.0277 22.8317C50.0277 20.8241 51.3206 19.1968 52.9164 19.1968C54.5121 19.1968 55.8051 20.8241 55.8051 22.8317C55.8051 24.8393 54.5121 26.4666 52.9164 26.4666Z" fill="white"/>
<path d="M21.013 15.9981C21.013 15.9981 20.3299 15.5374 19.2379 14.9677C16.0866 13.3232 9.52567 10.766 6.11749 15.7283C4.1386 18.6084 4.66956 21.3608 4.95513 22.3079C6.62836 27.8557 11.6366 31.1074 16.6606 30.2321C15.0376 31.3514 13.1233 32 11.0726 32C5.20338 32 0.446291 26.7033 0.446291 20.1697C0.446291 19.7377 1.04182 7.5042 0 0.0248702C0 0.0248702 8.04186 -0.882063 9.74522 8.25758C9.74666 8.25758 9.7481 8.25759 9.74953 8.25615C10.0337 8.20162 16.3736 6.9345 19.4632 9.49888C22.3519 11.8968 21.013 15.9981 21.013 15.9981Z" fill="white"/>
<path d="M21.013 15.9981C21.013 15.9981 20.3299 15.5374 19.2378 14.9677C15.3288 8.77849 9.74805 8.2748 9.74805 8.2748V8.25327C10.0322 8.19874 16.3721 6.93162 19.4617 9.496C22.3518 11.8968 21.013 15.9981 21.013 15.9981Z" fill="#40B876"/>
<path d="M19.6124 29.2118C19.2264 29.417 18.7241 29.6394 18.3079 29.7944C17.7382 30.0082 17.3608 30.0871 16.6979 30.222C16.6706 30.2335 16.6448 30.2464 16.6175 30.2579C16.6318 30.2478 16.6462 30.2392 16.6605 30.2292L16.5587 30.2464C11.5677 31.0601 6.61683 27.8155 4.95508 22.305C4.95508 22.305 14.6845 29.262 19.3957 23.509C20.8623 21.7181 21.5611 19.1494 21.1249 17.0313C20.0816 11.9685 15.9488 8.63212 11.0726 8.33507C10.6091 8.30637 10.1054 8.25615 9.74805 8.27193C10.3421 7.89452 10.9621 7.53146 11.6466 7.32339C17.6751 5.48656 22.5642 9.22479 24.2963 12.7535C25.1831 14.2976 28.3976 23.486 19.6124 29.2118Z" fill="#75CBC8"/>
<path d="M16.5587 30.2478C11.5677 31.0615 6.61683 27.8169 4.95508 22.3064C4.95364 22.3064 8.78945 28.7525 16.5587 30.2478Z" fill="#40B876"/>
</svg>
