<svg width="1366" height="634" viewBox="0 0 1366 634" fill="none" xmlns="http://www.w3.org/2000/svg">
<g opacity="0.02">
<path d="M1364.52 489.372L1325.36 469.544H1309.98V457.91H1259.23V455.534H1312.63V467.168H1325.98L1365.85 487.241L1364.52 489.372Z" fill="#121212"/>
<path d="M1277.18 467.169H1205.4V469.626H1277.18V467.169Z" fill="#121212"/>
<path d="M1217.42 421.779H1214.85V354.76H1207.96L1200.71 324.773H1127.25L1116.9 348.779V359.757H1088.7V357.299H1114.25V348.287L1125.48 322.397H1202.83L1209.99 352.302H1217.42V421.779Z" fill="#121212"/>
<path d="M1294.51 449.471L1259.76 430.791V383.763L1249.42 359.757H1240.76V377.29L1233.6 385.566V414.159L1202.39 429.48L1201.15 427.35L1231.03 412.766V384.746L1238.19 376.389V357.299H1251.19L1262.33 383.271V429.398L1295.83 447.341L1294.51 449.471Z" fill="#121212"/>
<path d="M1248.54 375.652H1239.52V378.11H1248.54V375.652Z" fill="#121212"/>
<path d="M1208.93 354.76H1177.46L1171.8 335.588L1174.28 334.932L1179.41 352.302H1208.93V354.76Z" fill="#121212"/>
<path d="M1209.99 364.919H1207.34V397.609H1209.99V364.919Z" fill="#121212"/>
<path d="M1303.61 503.136H1258.97V505.594H1303.61V503.136Z" fill="#121212"/>
<path d="M38.5443 413.34L37.2183 411.21L60.7339 398.347V387.286H177.428L185.915 351.646H203.949V354.022H188.036L179.461 389.662H63.386V399.74L38.5443 413.34Z" fill="#121212"/>
<path d="M212.613 406.458H103.345V408.916H212.613V406.458Z" fill="#121212"/>
<path d="M180.522 413.012H154.885V415.47H180.522V413.012Z" fill="#121212"/>
<path d="M312.156 408.178L299.338 359.512H281.657L275.469 324.691H259.202L252.66 306.912H209.519L200.501 380.404L197.938 380.158L207.22 304.536H254.517L261.059 322.233H277.679L283.867 357.054H301.371L314.72 407.605L312.156 408.178Z" fill="#121212"/>
<path d="M284.021 358.059L281.404 358.455L287.528 393.223L290.145 392.828L284.021 358.059Z" fill="#121212"/>
<path d="M232.857 311.582H222.16V314.04H232.857V311.582Z" fill="#121212"/>
<path d="M211.736 339.655L207.123 384.433L209.763 384.667L214.376 339.889L211.736 339.655Z" fill="#121212"/>
<path d="M139.414 442.999H83.4539V445.457H139.414V442.999Z" fill="#121212"/>
<path d="M342.568 387.286L340.004 386.549L345.573 370.408H355.033L362.901 337.308H391.986L400.915 378.602L398.351 379.093L389.864 339.766H364.934L357.154 372.784H347.43L342.568 387.286Z" fill="#121212"/>
<path d="M430.972 360.413H396.318V362.871H430.972V360.413Z" fill="#121212"/>
<path d="M941.951 166.237C769.12 166.237 583.117 127.648 472.081 64.4793L473.407 62.431C611.848 141.166 867.426 181.558 1067.75 156.324C1159.07 144.853 1266.22 69.2313 1267.28 68.4939L1268.87 70.3783C1268.61 70.5422 1241.47 89.7959 1203.45 110.115C1168.27 128.959 1116.2 152.637 1068.1 158.7C1027.88 163.779 985.269 166.237 941.951 166.237Z" fill="#121212"/>
<path d="M527.333 26.8732H512.393V477.738H527.333V26.8732Z" fill="#121212"/>
<path d="M591.338 69.3953H448.388V85.2079H591.338V69.3953Z" fill="#121212"/>
<path d="M455.814 53.5828V67.429C455.814 71.7714 459.615 75.3763 464.389 75.3763C469.074 75.3763 472.964 71.8533 472.964 67.429V53.5828H455.814Z" fill="white"/>
<path d="M464.389 76.5232C458.996 76.5232 454.576 72.4266 454.576 67.4289V52.3536H474.29V67.4289C474.202 72.4266 469.782 76.5232 464.389 76.5232ZM457.14 54.7296V67.3469C457.14 71.0338 460.411 74.0653 464.389 74.0653C468.367 74.0653 471.638 71.0338 471.638 67.3469V54.7296H457.14Z" fill="#121212"/>
<path d="M566.761 53.5828V67.429C566.761 71.7714 570.563 75.3763 575.337 75.3763C580.022 75.3763 583.912 71.8533 583.912 67.429V53.5828H566.761Z" fill="white"/>
<path d="M575.337 76.5232C569.944 76.5232 565.524 72.4266 565.524 67.4289V52.3536H585.238V67.4289C585.15 72.4266 580.73 76.5232 575.337 76.5232ZM568.088 54.7296V67.3469C568.088 71.0338 571.359 74.0653 575.337 74.0653C579.315 74.0653 582.586 71.0338 582.586 67.3469V54.7296H568.088Z" fill="#121212"/>
<path d="M260.793 124.535C231.443 124.535 203.33 119.864 176.986 110.442C115.81 88.6489 84.7799 48.6667 84.4263 48.2571L86.548 46.8643C86.8132 47.2739 117.49 86.7645 178.047 108.23C233.918 128.058 327.274 136.169 455.283 62.2672L455.637 62.1034H471.815V64.5613H456.344C399.5 97.3335 344.689 116.833 293.238 122.65C282.276 123.961 271.49 124.535 260.793 124.535Z" fill="#121212"/>
<path d="M1067.48 158.945C1063.51 158.945 1059.44 158.945 1055.37 158.863C988.098 157.962 912.865 149.196 831.622 132.973C696.451 105.936 589.216 66.6915 583.47 64.5613H568.618C529.19 91.1068 492.679 108.722 456.963 118.554C424.254 127.484 395.522 128.877 372.36 129.942C266.982 134.94 183.351 116.915 131.811 100.857C75.8512 83.4873 44.3792 64.6432 44.114 64.4794L45.5285 62.4311C45.7937 62.595 77.0889 81.3571 132.784 98.5625C184.147 114.539 267.424 132.482 372.272 127.484C422.043 125.108 478.446 122.404 567.469 62.3492L567.823 62.1034H584.001L584.266 62.1853C585.327 62.595 694.241 102.987 832.24 130.597C959.543 156.078 1138.39 175.495 1267.54 123.797L1268.61 126.009C1214.06 147.885 1146.43 158.945 1067.48 158.945Z" fill="#121212"/>
<path d="M531.046 68.1663H507.266V70.6242H531.046V68.1663Z" fill="#121212"/>
<path d="M1051.31 23.4321H955.565V25.89H1051.31V23.4321Z" fill="#121212"/>
<path d="M1113.1 0H1090.47V2.45792H1113.1V0Z" fill="#121212"/>
<path d="M1075.97 0H972.98V2.45792H1075.97V0Z" fill="#121212"/>
<path d="M1141.04 12.9451H1071.37V15.403H1141.04V12.9451Z" fill="#121212"/>
<path d="M1051.31 12.9451H937.265V15.403H1051.31V12.9451Z" fill="#121212"/>
<path d="M912.777 12.9451H881.57V15.403H912.777V12.9451Z" fill="#121212"/>
<path d="M333.816 43.587H238.073V46.045H333.816V43.587Z" fill="#121212"/>
<path d="M358.48 20.1549H255.489V22.6128H358.48V20.1549Z" fill="#121212"/>
<path d="M333.904 33.0999H219.862V35.5578H333.904V33.0999Z" fill="#121212"/>
<path d="M195.285 33.0999H164.079V35.5578H195.285V33.0999Z" fill="#121212"/>
<path d="M1204.78 260.785H1121.15V263.243H1204.78V260.785Z" fill="#121212"/>
<path d="M1226.26 240.302H1136.35V242.76H1226.26V240.302Z" fill="#121212"/>
<path d="M1204.87 251.609H1105.23V254.067H1204.87V251.609Z" fill="#121212"/>
<path d="M1083.84 251.609H1056.52V254.067H1083.84V251.609Z" fill="#121212"/>
<path d="M378.548 221.213H294.917V223.671H378.548V221.213Z" fill="#121212"/>
<path d="M358.569 212.036H258.937V214.494H358.569V212.036Z" fill="#121212"/>
<path d="M237.543 212.036H210.226V214.494H237.543V212.036Z" fill="#121212"/>
<path d="M1147.84 574.743L1099.66 591.048H941.508V454.715H1147.49L1147.84 574.743Z" fill="#050D13"/>
<path d="M1096.04 558.03C1096.04 595.062 1092.06 626.36 1060.41 630.866C1057.76 631.276 1034.69 630.702 1031.95 630.702C996.496 630.702 967.853 598.176 967.853 558.03C967.853 517.884 996.584 485.357 1031.95 485.357C1067.31 485.357 1096.04 517.884 1096.04 558.03Z" fill="#050D13"/>
<path d="M1061.21 630.702C1096.61 630.702 1125.3 598.165 1125.3 558.03C1125.3 517.894 1096.61 485.357 1061.21 485.357C1025.81 485.357 997.115 517.894 997.115 558.03C997.115 598.165 1025.81 630.702 1061.21 630.702Z" fill="#050D13"/>
<path d="M1061.21 632.668C1024.61 632.668 994.905 599.159 994.905 558.03C994.905 516.9 1024.61 483.391 1061.21 483.391C1097.81 483.391 1127.51 516.9 1127.51 558.03C1127.51 599.159 1097.72 632.668 1061.21 632.668ZM1061.21 487.405C1027.08 487.405 999.237 519.113 999.237 558.03C999.237 596.947 1027 628.654 1061.21 628.654C1095.33 628.654 1123.18 596.947 1123.18 558.03C1123.18 519.031 1095.33 487.405 1061.21 487.405Z" fill="white"/>
<path d="M1060.94 605.877C1083.6 605.877 1101.96 585.079 1101.96 559.422C1101.96 533.766 1083.6 512.968 1060.94 512.968C1038.29 512.968 1019.92 533.766 1019.92 559.422C1019.92 585.079 1038.29 605.877 1060.94 605.877Z" fill="#F7F7F4"/>
<path d="M852.839 631.03C898.978 631.03 936.381 595.265 936.381 551.147C936.381 507.029 898.978 471.265 852.839 471.265C806.7 471.265 769.296 507.029 769.296 551.147C769.296 595.265 806.7 631.03 852.839 631.03Z" fill="#050D13"/>
<path d="M617.24 454.306H385.974V594.325H617.24V454.306Z" fill="#050D13"/>
<path d="M547.489 558.03C547.489 595.062 543.511 626.36 511.862 630.866C509.21 631.276 486.136 630.702 483.396 630.702C447.946 630.702 419.302 598.176 419.302 558.03C419.302 517.884 448.034 485.357 483.396 485.357C518.758 485.357 547.489 517.884 547.489 558.03Z" fill="#050D13"/>
<path d="M307.736 631.03C353.875 631.03 391.278 595.265 391.278 551.147C391.278 507.029 353.875 471.265 307.736 471.265C261.597 471.265 224.194 507.029 224.194 551.147C224.194 595.265 261.597 631.03 307.736 631.03Z" fill="#050D13"/>
<path d="M1187.1 520.178C1187.01 528.78 1186.74 536.564 1186.39 543.036C1185.77 554.752 1184.97 562.044 1184.97 562.044L1134.5 578.185C1137.68 514.442 1109.21 489.126 1086.67 479.048C1071.11 472.166 1053.25 471.511 1036.99 476.836C968.472 499.04 982.086 593.506 982.086 593.506H587.713C595.758 526.159 571.977 496.991 550.407 483.8C535.466 474.624 516.106 471.101 498.602 474.952C420.098 492.321 434.42 593.506 434.42 593.506H174.069L157.537 549.099C157.537 548.935 157.537 548.853 157.537 548.689C157.36 540.333 157.537 532.795 158.156 525.995C161.515 485.931 176.455 470.61 180.522 467.168C181.141 466.595 181.583 466.349 181.583 466.349C243.378 426.039 414.087 413.094 414.087 413.094C414.264 412.93 414.441 412.848 414.617 412.685C485.871 365.902 549.169 341.323 590.542 328.788C622.103 319.202 640.933 316.662 640.933 316.662C849.921 288.396 933.994 319.366 1021.43 355.415C1075.88 377.864 1167.74 412.685 1167.74 412.685C1168.27 413.504 1168.71 414.405 1169.24 415.306C1171.01 418.42 1172.51 421.779 1173.92 425.302C1177.73 434.56 1180.47 444.883 1182.5 455.698C1182.94 458.074 1183.38 460.45 1183.74 462.826C1186.57 482.49 1187.27 502.972 1187.1 520.178Z" fill="white"/>
<path d="M982.086 594.734H586.21L586.387 593.424C592.752 540.251 580.376 503.709 549.699 484.865C534.759 475.689 515.84 472.412 498.955 476.181C466.953 483.227 446.531 505.102 438.398 541.07C432.298 568.025 435.746 593.178 435.746 593.424L435.923 594.816H173.184L156.299 549.345V548.771C156.122 540.824 156.299 533.123 156.918 525.995C160.277 485.767 175.218 470.2 179.638 466.349C180.345 465.776 180.699 465.448 180.787 465.448C212.966 444.474 274.673 431.037 320.732 423.499C368.205 415.716 409.313 412.357 413.556 412.029L413.822 411.865C485.606 364.755 549.257 340.176 590.1 327.804C621.395 318.3 640.491 315.679 640.668 315.597C736.763 302.652 811.819 301.095 876.885 310.845C933.994 319.447 976.34 335.67 1021.87 354.432C1075.71 376.635 1167.21 411.374 1168.09 411.701L1168.53 411.865L1168.8 412.193C1169.33 413.012 1169.77 413.913 1170.3 414.815C1172.07 417.928 1173.66 421.369 1175.07 424.892C1178.61 433.577 1181.53 443.9 1183.65 455.534C1184.09 458.156 1184.53 460.45 1184.89 462.744C1187.45 479.54 1188.69 498.876 1188.51 520.178C1188.42 527.551 1188.25 535.253 1187.8 543.036C1187.18 554.588 1186.39 562.044 1186.3 562.126L1186.21 562.863L1133.08 579.823L1133.17 578.021C1136.26 515.753 1109.3 490.437 1086.05 480.032C1071.02 473.313 1053.69 472.576 1037.43 477.819C1009.49 486.914 991.899 508.953 985.18 543.528C980.141 569.418 983.412 593.014 983.412 593.178L983.589 594.571H982.086V594.734ZM589.128 592.277H980.583C979.964 586.869 978.108 565.977 982.528 543.282C989.335 508.298 1008.08 484.947 1036.54 475.689C1053.52 470.2 1071.46 471.019 1087.2 477.983C1110.89 488.552 1138.47 514.197 1135.82 576.464L1183.74 561.143C1184 558.931 1184.62 552.294 1185.06 542.954C1185.5 535.171 1185.68 527.551 1185.77 520.178C1185.95 499.039 1184.71 479.786 1182.15 463.154C1181.79 460.942 1181.44 458.566 1180.91 456.026C1178.79 444.556 1175.96 434.396 1172.42 425.793C1171.01 422.27 1169.42 418.993 1167.74 415.962C1167.29 415.224 1166.94 414.487 1166.5 413.75C1159.6 411.128 1072.61 378.028 1020.63 356.644C939.74 323.38 856.109 288.887 640.844 317.973C640.668 317.973 621.749 320.594 590.719 330.017C550.053 342.306 486.667 366.885 415.148 413.75L414.264 414.323H413.91C412.23 414.487 242.936 427.678 182.113 467.332C182.113 467.332 181.76 467.578 181.229 468.07C176.897 471.757 162.664 486.75 159.305 526.077C158.686 533.123 158.509 540.742 158.686 548.608V548.853L174.864 592.277H433.005C432.387 586.623 430.442 564.174 435.834 540.414C444.056 503.955 465.715 480.933 498.336 473.723C515.929 469.872 535.643 473.231 551.114 482.735C564.551 491.01 574.718 502.808 581.348 517.884C589.923 537.383 592.576 562.372 589.128 592.277Z" fill="#121212"/>
<path d="M670.814 406.294L669.753 431.856L654.282 433.249L660.824 406.294H670.814Z" fill="white"/>
<path d="M652.602 434.642L659.763 405.147H672.228L671.079 433.003L652.602 434.642ZM661.885 407.523L655.961 431.856L668.515 430.709L669.487 407.441H661.885V407.523Z" fill="#121212"/>
<path d="M512.658 630.702C548.056 630.702 576.751 598.165 576.751 558.03C576.751 517.894 548.056 485.357 512.658 485.357C477.26 485.357 448.565 517.894 448.565 558.03C448.565 598.165 477.26 630.702 512.658 630.702Z" fill="#050D13"/>
<path d="M512.658 632.668C476.058 632.668 446.354 599.159 446.354 558.03C446.354 516.9 476.058 483.391 512.658 483.391C549.257 483.391 578.961 516.9 578.961 558.03C578.961 599.159 549.257 632.668 512.658 632.668ZM512.658 487.405C478.534 487.405 450.686 519.113 450.686 558.03C450.686 596.947 478.445 628.654 512.658 628.654C546.782 628.654 574.63 596.947 574.63 558.03C574.63 519.031 546.87 487.405 512.658 487.405Z" fill="white"/>
<path d="M601.947 439.148L602.123 436.854C602.919 427.514 607.251 418.502 614.412 411.456C616.268 409.571 618.301 407.687 620.511 405.557C655.431 372.621 696.628 349.27 742.775 336.407C785.563 324.445 817.3 326.084 817.654 326.084C817.742 326.084 817.83 326.084 817.919 326.084C823.135 326.33 828.351 326.657 833.92 327.067C836.749 327.313 839.578 327.559 842.761 327.805C857.701 329.197 872.906 331.164 887.847 333.622C997.645 351.81 1075.18 394.332 1075.88 394.742L1079.33 396.626L601.947 439.148ZM812.88 328.378C802.713 328.378 776.457 329.443 743.482 338.619C697.689 351.401 656.934 374.505 622.28 407.195C620.069 409.244 618.125 411.21 616.268 413.012C609.726 419.567 605.66 427.842 604.775 436.445L1071.02 394.988C1054.67 386.549 983.412 351.974 887.405 335.998C872.464 333.54 857.347 331.573 842.495 330.18C839.401 329.935 836.484 329.689 833.743 329.443C828.174 329.033 822.958 328.706 817.919 328.46C817.83 328.46 817.654 328.46 817.565 328.46C817.388 328.46 815.797 328.378 812.88 328.378Z" fill="#121212"/>
<path d="M714.574 333.785C688.936 343.371 664.271 357.955 643.496 372.211C638.015 375.98 632.888 379.667 628.025 383.353L627.937 383.435C620.423 389.089 613.616 394.414 607.869 399.166C594.697 409.981 586.917 417.6 586.917 417.6L414.705 412.766C485.959 365.984 549.257 341.405 590.63 328.87C593.813 328.788 597.084 328.706 600.443 328.624C603.184 328.542 605.924 328.542 608.665 328.46C615.118 328.378 621.749 328.296 628.291 328.378C631.473 328.378 634.656 328.378 637.838 328.46C670.018 328.788 700.34 330.18 714.132 330.918C715.811 330.918 716.165 333.212 714.574 333.785Z" fill="white"/>
<path d="M587.36 418.829H586.741L410.551 413.914L413.733 411.865C485.429 364.837 549.169 340.176 589.923 327.804L590.1 327.723L600.09 327.477C602.83 327.395 605.571 327.395 608.311 327.313C614.588 327.231 621.219 327.149 628.026 327.231C630.943 327.231 633.949 327.231 636.866 327.313H637.573C669.311 327.641 699.015 329.033 713.955 329.771C715.369 329.853 716.519 330.754 716.695 332.065C716.961 333.376 716.165 334.605 714.839 335.096C692.738 343.453 668.869 356.316 644.027 373.358C638.899 376.881 633.684 380.65 628.556 384.5L628.379 384.582C621.572 389.662 614.853 394.906 608.4 400.231C595.493 410.882 587.536 418.502 587.536 418.584L587.36 418.829ZM418.507 411.701L586.299 416.371C588.067 414.651 595.581 407.687 606.897 398.265C613.439 392.857 620.158 387.614 626.965 382.452L627.142 382.37C632.269 378.52 637.485 374.751 642.612 371.228C667.631 354.022 691.677 340.995 714.043 332.638C714.132 332.638 714.309 332.556 714.309 332.229C714.309 332.065 714.132 331.983 713.955 331.901C699.103 331.164 669.399 329.771 637.662 329.443H636.955C634.037 329.443 631.031 329.361 628.114 329.361C621.307 329.361 614.765 329.361 608.488 329.443C605.748 329.525 603.007 329.525 600.267 329.607L590.631 329.853C550.672 342.224 488.612 366.23 418.507 411.701Z" fill="#121212"/>
<path d="M966.439 572.122H602.035L602.919 438.575H605.571L604.687 569.664H965.201C965.466 564.748 966.881 545.085 974.395 523.865C985.799 491.42 1006.13 470.2 1033.1 462.335C1058.47 454.961 1086.05 458.238 1106.83 471.019C1132.37 486.75 1148.11 516.491 1152.26 556.964L1149.7 557.21C1145.63 517.474 1130.25 488.389 1105.41 473.068C1085.25 460.696 1058.56 457.583 1033.89 464.711C1000.92 474.296 984.65 502.563 976.87 524.602C968.384 548.608 967.765 570.729 967.765 570.893V572.04H966.439V572.122Z" fill="#121212"/>
<path d="M838.428 570.975L835.865 570.811L844.528 437.51L838.075 417.928L840.55 417.273L847.181 437.182V437.428L838.428 570.975Z" fill="#121212"/>
<path d="M1023.81 483.309L1021.16 483.145L1024.34 422.844L1008.34 402.361L1010.46 400.969L1027 422.107L1023.81 483.309Z" fill="#121212"/>
<path d="M512.481 605.877C535.136 605.877 553.501 585.079 553.501 559.422C553.501 533.766 535.136 512.968 512.481 512.968C489.827 512.968 471.461 533.766 471.461 559.422C471.461 585.079 489.827 605.877 512.481 605.877Z" fill="#F7F7F4"/>
<path d="M512.216 592.686C495.949 592.686 482.777 577.857 482.777 559.586C482.777 541.316 495.949 526.486 512.216 526.486C528.482 526.486 541.655 541.316 541.655 559.586C541.655 577.857 528.482 592.686 512.216 592.686ZM512.216 528.944C497.452 528.944 485.341 542.709 485.341 559.586C485.341 576.464 497.364 590.228 512.216 590.228C527.068 590.228 539.091 576.464 539.091 559.586C539.091 542.709 527.068 528.944 512.216 528.944Z" fill="#121212"/>
<path d="M511.42 568.107C515.473 568.107 518.758 564.402 518.758 559.832C518.758 555.262 515.473 551.557 511.42 551.557C507.368 551.557 504.083 555.262 504.083 559.832C504.083 564.402 507.368 568.107 511.42 568.107Z" fill="#121212"/>
<path d="M1061.65 568.107C1065.7 568.107 1068.99 564.402 1068.99 559.832C1068.99 555.262 1065.7 551.557 1061.65 551.557C1057.6 551.557 1054.31 555.262 1054.31 559.832C1054.31 564.402 1057.6 568.107 1061.65 568.107Z" fill="#121212"/>
<path d="M1061.65 592.686C1045.38 592.686 1032.21 577.857 1032.21 559.586C1032.21 541.316 1045.38 526.486 1061.65 526.486C1077.92 526.486 1091.09 541.316 1091.09 559.586C1091.09 577.857 1077.83 592.686 1061.65 592.686ZM1061.65 528.944C1046.89 528.944 1034.78 542.709 1034.78 559.586C1034.78 576.464 1046.8 590.228 1061.65 590.228C1076.41 590.228 1088.53 576.464 1088.53 559.586C1088.44 542.709 1076.41 528.944 1061.65 528.944Z" fill="#121212"/>
<path d="M454.046 447.014C454.046 447.014 447.504 449.963 438.575 454.879C425.756 461.925 408.075 472.986 398.263 484.947L301.46 503.873L291.116 505.922C291.116 505.922 258.937 512.968 243.731 526.732C240.726 529.436 236.836 530.992 232.681 530.992H170.974C170.974 530.992 164.875 529.927 158.067 526.077C158.421 521.898 158.863 517.965 159.482 514.279C159.659 512.886 159.924 511.575 160.189 510.264C160.985 506.004 161.957 502.071 162.93 498.548C163.372 497.155 163.725 495.844 164.167 494.533C165.67 490.109 167.261 486.258 168.941 482.981C169.648 481.506 170.444 480.195 171.151 478.967C175.041 472.33 178.666 468.725 180.434 467.25H291.205L454.046 447.014Z" fill="#121212"/>
<path d="M232.769 532.139H170.886H170.797C170.532 532.058 164.432 530.992 157.448 527.06L156.741 526.65L156.829 525.913C157.183 521.816 157.625 517.884 158.244 514.033C158.421 512.64 158.686 511.329 158.951 509.936C159.747 505.758 160.719 501.743 161.78 498.138C162.222 496.664 162.664 495.353 163.018 494.042C164.432 489.945 166.023 485.931 167.792 482.326C168.499 480.933 169.206 479.54 170.002 478.229C173.98 471.429 177.693 467.824 179.549 466.185L179.903 465.858H291.027L461.737 444.719L454.487 447.997C454.399 447.997 447.857 451.028 439.105 455.862C426.198 462.99 408.782 473.887 399.235 485.603L398.969 485.931L398.527 486.013L291.469 506.987C291.204 507.069 259.555 514.115 244.703 527.469C241.433 530.583 237.189 532.139 232.769 532.139ZM171.239 529.764H232.857C236.57 529.764 240.195 528.371 242.935 525.831C258.318 511.985 289.613 505.02 290.939 504.775L397.555 483.882C407.456 472.002 424.96 461.024 437.867 453.896C441.227 452.011 444.321 450.455 446.796 449.144L291.204 468.397H180.964C179.107 470.036 175.836 473.395 172.3 479.458C171.593 480.769 170.797 482.08 170.178 483.391C168.41 486.914 166.819 490.765 165.493 494.779C165.051 496.008 164.697 497.319 164.255 498.794C163.194 502.399 162.31 506.249 161.515 510.346C161.25 511.657 161.073 512.968 160.808 514.361C160.277 517.884 159.835 521.57 159.482 525.339C165.316 528.535 170.355 529.6 171.239 529.764Z" fill="#121212"/>
<path d="M252.041 571.302H165.847L157.537 549.099C157.537 548.935 157.537 548.853 157.537 548.689H231.354C237.543 548.689 243.201 552.131 245.588 557.374L252.041 571.302Z" fill="#050D13"/>
<path d="M438.575 454.961C425.756 462.007 408.075 473.067 398.263 485.029L301.46 503.955C294.21 499.531 287.934 494.206 288.552 489.044C289.879 477.328 305.968 474.542 305.968 474.542L438.575 454.961Z" fill="white"/>
<path d="M301.283 505.266L300.841 505.021C291.381 499.203 286.784 493.796 287.315 488.962C288.729 476.509 305.084 473.477 305.791 473.395L445.117 452.831L439.282 456.026C426.375 463.154 408.959 474.051 399.412 485.767L399.146 486.095L398.704 486.176L301.283 505.266ZM432.298 457.091L306.233 475.689C306.145 475.689 291.116 478.475 289.878 489.126C289.436 492.895 293.591 497.565 301.725 502.645L397.467 483.882C406.13 473.641 420.187 464.137 432.298 457.091Z" fill="#121212"/>
<path d="M274.673 480.933C274.673 482.08 273.701 482.981 272.463 482.981H169.03C169.737 481.506 170.532 480.196 171.24 478.967H272.551C273.701 478.885 274.673 479.786 274.673 480.933Z" fill="white"/>
<path d="M164.256 494.533H263.357C264.595 494.533 265.567 495.435 265.567 496.582C265.567 497.729 264.595 498.63 263.357 498.63H163.018L164.256 494.533Z" fill="white"/>
<path d="M160.278 510.264H254.252C255.489 510.264 256.462 511.165 256.462 512.312C256.462 513.459 255.489 514.36 254.252 514.36H159.57L160.278 510.264Z" fill="white"/>
<path d="M246.56 571.302L246.472 568.844L290.674 568.025C334.257 564.584 348.579 549.673 351.319 546.313L338.412 532.139L271.844 534.106L230.294 552.54L229.144 550.328L271.225 531.648H271.49L339.562 529.6L354.502 546.068L354.06 546.805C353.529 547.624 341.418 566.386 290.762 570.401L246.56 571.302Z" fill="#121212"/>
<path d="M422.662 556.473L420.01 556.391C420.01 555.899 423.016 504.119 457.935 476.509C475.439 462.662 498.071 457.091 525.034 459.959C557.39 463.4 594.52 489.781 604.51 540.906L601.946 541.316C592.133 491.42 556.153 465.694 524.681 462.335C498.425 459.549 476.5 464.874 459.527 478.311C425.579 505.184 422.75 555.899 422.662 556.473Z" fill="#121212"/>
<path d="M327.362 554.015C331.219 554.015 334.346 550.567 334.346 546.313C334.346 542.06 331.219 538.612 327.362 538.612C323.505 538.612 320.378 542.06 320.378 546.313C320.378 550.567 323.505 554.015 327.362 554.015Z" fill="#050D13"/>
<path d="M370.327 483.8C373.354 483.8 375.808 481.086 375.808 477.738C375.808 474.389 373.354 471.675 370.327 471.675C367.299 471.675 364.845 474.389 364.845 477.738C364.845 481.086 367.299 483.8 370.327 483.8Z" fill="#121212"/>
<path d="M345.043 487.815C348.07 487.815 350.524 485.101 350.524 481.752C350.524 478.404 348.07 475.689 345.043 475.689C342.016 475.689 339.562 478.404 339.562 481.752C339.562 485.101 342.016 487.815 345.043 487.815Z" fill="#121212"/>
<path d="M319.759 492.649C322.786 492.649 325.24 489.935 325.24 486.586C325.24 483.238 322.786 480.523 319.759 480.523C316.732 480.523 314.278 483.238 314.278 486.586C314.278 489.935 316.732 492.649 319.759 492.649Z" fill="#121212"/>
<path d="M879.802 413.176L868.663 414.159L729.956 426.531C730.133 418.256 728.188 372.948 734.465 370.408C748.433 364.755 770.799 368.196 781.85 370.572C787.861 371.883 792.37 376.471 793.077 382.124L791.928 409.899L877.238 396.217L879.802 413.176Z" fill="#050D13"/>
<path d="M603.45 460.778L603.273 458.32L1086.14 415.962L1174.63 425.302L1174.37 427.678L1086.14 418.42L603.45 460.778Z" fill="#121212"/>
<path d="M974.217 526.732L603.201 562.863L603.478 565.307L974.494 529.177L974.217 526.732Z" fill="#121212"/>
<path d="M780.347 397.118L739.15 395.397L739.239 392.939L774.866 394.414C772.567 391.055 771.595 387.696 772.037 384.337C772.832 377.946 778.225 374.013 778.402 373.849L779.993 375.734L779.197 374.751L779.993 375.734C779.905 375.734 775.219 379.257 774.6 384.664C774.158 388.105 775.484 391.546 778.49 395.069L780.347 397.118Z" fill="white"/>
<path d="M247.091 560.487L245.941 558.357L275.645 544.675H320.378V547.133H276.264L247.091 560.487Z" fill="#121212"/>
<path d="M739.327 404.573L737.382 371.719C737.382 371.719 745.25 372.375 746.222 362.707C746.222 362.707 746.134 354.596 739.946 356.972L734.907 346.075L704.672 344.109C704.672 344.109 691.765 386.057 712.54 384.091L711.745 406.622L739.327 404.573Z" fill="white"/>
<path d="M710.419 407.933L711.215 385.402C711.215 385.402 711.215 385.402 711.126 385.402C707.855 385.402 705.203 384.337 703.258 382.125C694.683 372.621 703.081 344.928 703.435 343.781L703.7 342.798L735.791 344.928L740.653 355.497C742.421 355.087 743.747 355.579 744.543 356.071C747.372 357.873 747.549 362.297 747.549 362.789V362.871V362.953C746.753 370.982 741.449 372.621 738.797 372.948L740.742 405.721L710.419 407.933ZM713.955 382.78L713.159 405.311L738.001 403.508L736.056 370.49L737.559 370.654C738.266 370.736 744.101 370.9 744.985 362.789C744.985 361.806 744.543 359.02 743.129 358.119C742.863 357.955 742.156 357.545 740.476 358.201L739.327 358.61L734.111 347.304L705.822 345.42C704.407 350.335 698.573 372.948 705.468 380.568C707.148 382.452 709.535 383.19 712.629 382.862L713.955 382.78Z" fill="#121212"/>
<path d="M744.189 359.512C744.189 359.512 738.708 355.087 735.526 364.509L732.432 365.165L727.658 347.222C727.658 347.222 700.164 350.335 692.738 340.586C690.528 337.718 691.058 333.376 693.976 331.164C696.097 329.525 699.545 328.952 704.584 333.294C704.584 333.294 702.462 320.922 712.452 325.347C715.811 326.821 718.906 331.901 725.359 332.638C725.359 332.638 736.144 332.638 736.852 339.193C737.029 339.193 748.521 337.472 744.189 359.512Z" fill="#121212"/>
<path d="M725.182 376.39C725.182 376.39 721.911 382.698 712.275 384.419L725.182 376.39Z" fill="white"/>
<path d="M712.452 385.648L712.01 383.272C720.85 381.715 723.856 376.144 724.033 375.98L726.42 377.045C726.243 377.209 722.707 383.845 712.452 385.648Z" fill="#121212"/>
<path d="M764.851 384.971C764.977 385.043 765.083 385.106 765.171 385.159C765.215 385.237 765.266 385.329 765.325 385.434C765.547 385.831 765.872 386.417 766.284 387.169C767.107 388.675 768.278 390.849 769.662 393.514C772.431 398.847 776.05 406.139 779.457 413.989C782.869 421.846 786.049 430.22 787.96 437.725C789.894 445.318 790.436 451.688 788.932 455.746C787.139 460.529 783.469 463.021 778.732 464.068C773.922 465.131 768.104 464.668 762.379 463.507C756.679 462.351 751.206 460.531 747.145 458.994C745.118 458.226 743.451 457.532 742.293 457.03C741.816 456.824 741.425 456.65 741.132 456.517L733.707 427.794L733.402 426.611L732.182 426.671L669.458 429.747L680.672 404.444L680.693 404.397L680.71 404.348C683.414 396.907 690.581 391.513 699.161 390.663C699.161 390.663 699.162 390.663 699.163 390.663L709.574 389.663C710.132 395.11 711.921 398.478 714.883 399.886C718.014 401.374 721.735 400.293 724.905 398.705C728.167 397.069 731.34 394.645 733.674 392.671C734.849 391.678 735.827 390.785 736.516 390.141C736.779 389.896 737 389.686 737.172 389.523H737.217L737.658 389.074C744.347 382.254 751.272 381.373 756.528 382.134C759.185 382.519 761.435 383.329 763.022 384.045C763.813 384.402 764.434 384.733 764.851 384.971Z" fill="white" stroke="black" stroke-width="3"/>
<path d="M745.604 432.02C745.604 432.02 745.604 449.554 739.946 456.19L711.833 429.071L691.412 429.89C691.412 429.89 698.838 416.372 710.153 417.683C721.558 418.993 745.604 432.02 745.604 432.02Z" fill="white"/>
<path d="M740.034 457.992L711.303 430.3L689.29 431.201L690.262 429.317C690.616 428.743 698.219 415.061 710.33 416.535C721.823 417.846 745.25 430.464 746.223 431.037L746.841 431.365V432.02C746.841 432.758 746.753 450.127 740.918 456.927L740.034 457.992ZM712.452 427.76L739.857 454.224C743.747 448.161 744.278 435.789 744.366 432.676C740.476 430.628 720.055 419.977 710.065 418.829C702.197 417.928 696.274 424.974 693.799 428.497L712.452 427.76Z" fill="#121212"/>
<path d="M645.088 386.795C642.17 389.171 638.811 391.874 635.452 394.578C652.249 395.397 665.686 408.26 665.686 424.073C665.686 426.941 665.244 429.726 664.36 432.348L674.792 431.447C675.322 429.071 675.587 426.531 675.587 423.991C675.499 406.376 662.592 391.383 645.088 386.795Z" fill="#050D13"/>
<path d="M674.969 409.407L673.643 413.586C673.643 413.586 656.669 399.903 657.818 395.725C658.879 391.874 666.924 390.235 674.527 404.164C675.411 405.72 675.588 407.605 674.969 409.407Z" fill="white"/>
<path d="M674.35 415.634L672.847 414.405C668.692 411.046 655.343 399.822 656.581 395.397C657.111 393.431 658.879 392.038 661.178 391.792C663.476 391.547 669.488 392.202 675.676 403.59C676.737 405.475 676.914 407.687 676.295 409.735L674.35 415.634ZM661.885 394.168C661.708 394.168 661.62 394.168 661.443 394.168C660.205 394.332 659.321 394.988 659.056 395.971C658.526 397.855 665.598 405.147 672.936 411.374L673.643 409.08C674.085 407.605 673.996 406.048 673.201 404.655C669.134 396.872 664.714 394.168 661.885 394.168Z" fill="#121212"/>
<path d="M1071.82 312.893C1042.29 306.994 863.005 273.976 588.598 287.495C583.824 276.27 568.972 248.496 527.245 250.954C524.062 251.117 523.001 254.968 525.742 256.607C535.024 262.096 547.489 272.911 543.511 290.116C498.513 293.066 451.128 297.326 401.71 303.143C399.5 303.389 397.644 305.11 397.555 307.24C397.467 309.698 399.677 311.664 402.241 311.5C445.913 309.944 801.476 298.31 1070.49 322.151C1073.58 322.397 1076.33 320.021 1075.97 317.072C1075.71 315.023 1074.03 313.385 1071.82 312.893Z" fill="#121212"/>
<path d="M741.803 179.018H730.664V160.748C730.664 159.765 729.78 158.945 728.719 158.945H679.566C678.505 158.945 677.621 159.765 677.621 160.748V179.018H666.482V160.748C666.482 154.03 672.317 148.622 679.566 148.622H728.719C735.968 148.622 741.803 154.03 741.803 160.748V179.018Z" fill="#050D13"/>
<path d="M886.255 104.38H877.15V89.3863C877.15 88.567 876.442 87.9115 875.558 87.9115H835.246C834.362 87.9115 833.654 88.567 833.654 89.3863V104.38H824.549V89.3863C824.549 83.8969 829.323 79.4727 835.246 79.4727H875.558C881.481 79.4727 886.255 83.8969 886.255 89.3863V104.38Z" fill="#050D13"/>
<path d="M892.709 104.38H883.603V89.3863C883.603 88.567 882.896 87.9115 882.012 87.9115H841.699C840.815 87.9115 840.108 88.567 840.108 89.3863V104.38H831.002V89.3863C831.002 83.8969 835.776 79.4727 841.699 79.4727H882.012C887.935 79.4727 892.709 83.8969 892.709 89.3863V104.38Z" fill="white"/>
<path d="M893.946 105.527H882.189V89.3863C882.189 89.2225 882.1 89.1406 881.923 89.1406H841.611C841.434 89.1406 841.346 89.2225 841.346 89.3863V105.527H829.588V89.3863C829.588 83.2415 834.981 78.2438 841.611 78.2438H881.923C888.554 78.2438 893.946 83.2415 893.946 89.3863V105.527ZM884.841 103.151H891.383V89.3863C891.383 84.5524 887.139 80.7017 882.012 80.7017H841.699C836.483 80.7017 832.328 84.6344 832.328 89.3863V103.151H838.87V89.3863C838.87 87.9116 840.196 86.6826 841.788 86.6826H882.1C883.691 86.6826 885.018 87.9116 885.018 89.3863V103.151H884.841Z" fill="#121212"/>
<path d="M778.578 285.938H906.146C910.39 285.938 913.749 282.743 913.749 278.892V109.459C913.749 105.527 910.301 102.413 906.146 102.413H778.578C774.335 102.413 770.976 105.609 770.976 109.459V278.892C770.976 282.743 774.335 285.938 778.578 285.938Z" fill="#050D13"/>
<path d="M809.874 285.938H937.442C941.685 285.938 945.044 282.743 945.044 278.892V109.459C945.044 105.527 941.597 102.413 937.442 102.413H809.874C805.63 102.413 802.271 105.609 802.271 109.459V278.892C802.271 282.743 805.63 285.938 809.874 285.938Z" fill="white"/>
<path d="M937.441 287.167H809.873C804.923 287.167 800.945 283.48 800.945 278.892V109.459C800.945 104.871 804.923 101.184 809.873 101.184H937.441C942.392 101.184 946.37 104.871 946.37 109.459V278.892C946.37 283.398 942.392 287.167 937.441 287.167ZM809.873 103.642C806.426 103.642 803.597 106.264 803.597 109.459V278.892C803.597 282.087 806.426 284.709 809.873 284.709H937.441C940.889 284.709 943.718 282.087 943.718 278.892V109.459C943.718 106.264 940.889 103.642 937.441 103.642H809.873Z" fill="#121212"/>
<path d="M792.281 102.413C788.038 102.413 784.678 105.609 784.678 109.459V278.892C784.678 282.825 788.126 285.938 792.281 285.938V102.413Z" fill="#050D13"/>
<path d="M792.281 287.167C787.331 287.167 783.353 283.48 783.353 278.892V109.459C783.353 104.871 787.331 101.184 792.281 101.184V103.642C788.834 103.642 786.005 106.264 786.005 109.459V278.892C786.005 282.087 788.834 284.709 792.281 284.709V287.167Z" fill="white"/>
<path d="M749.67 179.018H738.531V160.748C738.531 159.765 737.647 158.945 736.586 158.945H687.433C686.373 158.945 685.489 159.765 685.489 160.748V179.018H674.35V160.748C674.35 154.03 680.184 148.622 687.433 148.622H736.586C743.836 148.622 749.67 154.03 749.67 160.748V179.018Z" fill="white"/>
<path d="M750.996 180.165H737.205V160.748C737.205 160.42 736.94 160.174 736.587 160.174H687.434C687.08 160.174 686.815 160.42 686.815 160.748V180.247H673.024V160.748C673.024 153.374 679.477 147.393 687.434 147.393H736.587C744.543 147.393 750.996 153.374 750.996 160.748V180.165ZM739.769 177.789H748.344V160.748C748.344 154.767 743.04 149.851 736.587 149.851H687.434C680.98 149.851 675.676 154.767 675.676 160.748V177.789H684.251V160.748C684.251 159.109 685.666 157.798 687.434 157.798H736.587C738.355 157.798 739.769 159.109 739.769 160.748V177.789Z" fill="#121212"/>
<path d="M610.433 283.48H766.114C771.241 283.48 775.396 279.629 775.396 274.877V185.245C775.396 180.493 771.241 176.642 766.114 176.642H610.433C605.306 176.642 601.151 180.493 601.151 185.245V274.959C601.151 279.629 605.306 283.48 610.433 283.48Z" fill="#050D13"/>
<path d="M648.624 283.48H804.304C809.432 283.48 813.587 279.629 813.587 274.877V185.245C813.587 180.493 809.432 176.642 804.304 176.642H648.624C643.497 176.642 639.342 180.493 639.342 185.245V274.959C639.342 279.629 643.497 283.48 648.624 283.48Z" fill="white"/>
<path d="M804.305 284.709H648.624C642.789 284.709 638.016 280.285 638.016 274.877V185.245C638.016 179.838 642.789 175.414 648.624 175.414H804.305C810.139 175.414 814.913 179.838 814.913 185.245V274.959C814.913 280.285 810.139 284.709 804.305 284.709ZM648.624 177.79C644.204 177.79 640.668 181.149 640.668 185.163V274.877C640.668 278.974 644.292 282.251 648.624 282.251H804.305C808.725 282.251 812.261 278.892 812.261 274.877V185.245C812.261 181.149 808.636 177.872 804.305 177.872H648.624V177.79Z" fill="#121212"/>
<path d="M627.23 176.56C622.103 176.56 617.948 180.411 617.948 185.163V274.877C617.948 279.629 622.103 283.48 627.23 283.48V176.56Z" fill="#050D13"/>
<path d="M627.23 284.709C621.395 284.709 616.622 280.285 616.622 274.877V185.245C616.622 179.838 621.395 175.414 627.23 175.414V177.872C622.81 177.872 619.274 181.231 619.274 185.245V274.959C619.274 279.056 622.898 282.333 627.23 282.333V284.709Z" fill="white"/>
<path d="M695.125 202.942H693.003V205.81H695.125V202.942Z" fill="#050D13"/>
<path d="M706.971 270.617C704.761 270.289 702.639 269.552 700.694 268.487L701.844 266.848C703.523 267.831 705.38 268.487 707.325 268.732L706.971 270.617ZM713.601 270.289L713.071 268.405C715.016 267.913 716.696 267.094 718.287 265.947L719.613 267.504C717.845 268.814 715.812 269.798 713.601 270.289ZM695.921 264.226C694.594 262.506 693.799 260.539 693.357 258.491L695.39 258.163C695.744 259.966 696.539 261.605 697.6 263.161L695.921 264.226ZM723.856 262.752L722 261.85C722.884 260.212 723.503 258.491 723.591 256.689L725.713 256.853C725.536 258.901 724.917 260.949 723.856 262.752ZM695.125 252.51H693.003V246.693H695.125V252.51ZM725.801 250.954H723.68V245.136H725.801V250.954ZM755.417 242.924H753.295V237.107H755.417V242.924ZM695.125 240.876H693.003V235.059H695.125V240.876ZM725.801 239.237H723.68V233.42H725.801V239.237ZM755.417 231.29H753.295V225.473H755.417V231.29ZM695.125 229.242H693.003V223.425H695.125V229.242ZM725.801 227.603H723.68V221.786H725.801V227.603ZM755.417 219.656H753.295V219.001C753.295 217.362 752.941 215.805 752.323 214.331L754.268 213.593C754.975 215.314 755.328 217.116 755.328 219.001V219.656H755.417ZM695.125 217.526H693.003V211.709H695.125V217.526ZM726.066 216.215L724.033 215.805C724.564 213.757 725.448 211.873 726.862 210.152L728.542 211.299C727.393 212.774 726.509 214.412 726.066 216.215ZM749.14 209.824C747.726 208.513 746.046 207.612 744.189 206.957L744.897 205.154C747.018 205.892 748.963 206.957 750.555 208.432L749.14 209.824ZM732.962 207.776L731.99 206.056C733.935 205.072 736.145 204.417 738.355 204.253L738.532 206.219C736.498 206.383 734.642 206.875 732.962 207.776Z" fill="#050D13"/>
<path d="M755.417 248.823H753.295V251.691H755.417V248.823Z" fill="#050D13"/>
<path d="M754.533 262.915C757.999 262.915 760.809 260.311 760.809 257.098C760.809 253.886 757.999 251.281 754.533 251.281C751.066 251.281 748.256 253.886 748.256 257.098C748.256 260.311 751.066 262.915 754.533 262.915Z" fill="#121212"/>
<path d="M698.205 191.205L688.051 201.915L690.043 203.537L700.197 192.828L698.205 191.205Z" fill="#050D13"/>
<path d="M690.018 191.213L688.027 192.836L698.184 203.543L700.175 201.92L690.018 191.213Z" fill="#050D13"/>
<path d="M486.49 298.064L486.048 295.688C486.49 295.606 531.753 288.15 582.498 269.798C629.264 252.838 690.44 223.015 716.254 176.643L717.138 175.004L718.375 176.479C718.552 176.724 738.443 199.255 776.104 217.608C810.935 234.568 868.486 251.281 945.133 234.977L945.752 237.353C911.539 244.645 878.211 246.038 846.65 241.532C821.367 237.927 797.232 230.553 774.866 219.656C742.068 203.68 722.619 184.59 717.668 179.346C705.999 199.501 686.815 218.263 660.736 235.059C639.342 248.823 613.351 261.277 583.382 272.092C532.372 290.444 486.932 297.982 486.49 298.064Z" fill="#121212"/>
<path d="M946.215 202.159L944.116 203.662L1031.31 308.236L1033.41 306.733L946.215 202.159Z" fill="#121212"/>
<path d="M1075.26 395.807L868.663 414.159L842.672 328.951C977.047 341.323 1075.26 395.807 1075.26 395.807Z" fill="#050D13"/>
<path d="M993.932 361.56L1009.58 401.051L993.932 361.56Z" fill="#050D13"/>
<path d="M995.205 361.194L992.715 362.04L1008.33 401.502L1010.82 400.656L995.205 361.194Z" fill="white"/>
<path d="M974.66 380.076H911.097C903.759 380.076 897.217 384.255 894.477 390.563L885.194 412.685L974.66 380.076Z" fill="#050D13"/>
<path d="M886.432 413.176L883.957 412.275L893.239 390.154C896.157 383.272 903.141 378.847 911.009 378.847H974.571V381.305H911.009C904.201 381.305 898.102 385.156 895.626 391.055L886.432 413.176Z" fill="white"/>
<path d="M887.582 334.85L868.398 399.494L838.782 401.132C838.782 401.132 833.478 355.825 743.04 337.554C786.182 325.51 817.477 327.313 817.477 327.313C825.964 327.722 834.274 328.296 842.495 329.115C858.143 330.426 873.172 332.393 887.582 334.85Z" fill="#050D13"/>
<path d="M859.027 415.061L856.64 415.306L823.842 418.256L817.919 327.313C823.311 327.559 828.616 327.886 833.832 328.296L859.027 415.061Z" fill="white"/>
<path d="M822.604 419.485L816.504 325.92L818.007 326.002C823.135 326.248 828.35 326.576 833.92 326.985L834.804 327.067L835.069 327.886L860.706 416.044L822.604 419.485ZM819.333 328.542L825.079 416.863L857.347 413.995L832.771 329.443C828.085 329.033 823.665 328.788 819.333 328.542Z" fill="#121212"/>
<path d="M646.856 429.071C646.856 430.709 646.679 432.348 646.237 433.905L603.273 437.755C603.273 437.509 603.273 437.182 603.361 436.936C604.157 427.678 608.489 418.993 615.296 412.193C617.329 410.145 619.362 408.26 621.307 406.294C635.629 406.867 646.856 416.863 646.856 429.071Z" fill="#121212"/>
<path d="M177.958 571.302L169.118 548.689H164.521L173.273 571.302H177.958Z" fill="white"/>
<path d="M191.838 571.302H187.241L178.4 548.689H183.086L191.838 571.302Z" fill="white"/>
<path d="M205.806 571.302L196.965 548.689H192.368L201.209 571.302H205.806Z" fill="white"/>
<path d="M219.685 571.302H215.088L206.336 548.689H210.933L219.685 571.302Z" fill="white"/>
<path d="M233.653 571.302L224.813 548.689H220.216L229.056 571.302H233.653Z" fill="white"/>
<path d="M264.418 594.161L253.456 577.775H177.605V575.317H254.959L266.628 592.85L264.418 594.161Z" fill="#121212"/>
<path d="M608.488 328.378C552.882 349.188 495.861 396.135 495.861 396.135L607.781 399.084C594.609 409.899 586.829 417.519 586.829 417.519L414.617 412.685C485.871 365.902 549.169 341.323 590.542 328.788C593.725 328.706 596.996 328.624 600.355 328.542C602.919 328.542 605.659 328.46 608.488 328.378Z" fill="#121212"/>
<path d="M643.497 372.211L627.938 383.354L627.849 383.435L628.114 328.296C631.297 328.296 634.479 328.296 637.662 328.378L643.497 372.211Z" fill="#121212"/>
<path d="M602.82 436.125L454.377 445.414L454.556 447.866L602.999 438.577L602.82 436.125Z" fill="#121212"/>
<path d="M745.541 430.917L744.986 433.321L769.362 438.161L769.918 435.758L745.541 430.917Z" fill="#121212"/>
<path d="M755.222 418.762L752.759 419.675L759.72 435.802L762.182 434.889L755.222 418.762Z" fill="#121212"/>
<path d="M828.792 450.209C826.317 450.209 823.93 449.389 822.073 447.833C819.952 446.112 818.714 443.572 818.626 440.951L821.278 440.869C821.366 442.835 822.25 444.637 823.842 445.948C825.433 447.259 827.466 447.833 829.676 447.669L845.059 446.194L845.324 448.57L829.942 450.045C829.499 450.209 829.146 450.209 828.792 450.209Z" fill="#121212"/>
<path d="M1009.05 434.069C1006.57 434.069 1004.19 433.249 1002.33 431.693C1000.21 429.972 998.971 427.432 998.883 424.81L1001.53 424.729C1001.62 426.695 1002.51 428.497 1004.1 429.808C1005.69 431.119 1007.72 431.693 1009.93 431.529L1025.32 430.054L1025.58 432.43L1010.2 433.905C1009.76 434.069 1009.4 434.069 1009.05 434.069Z" fill="#121212"/>
<path d="M1183.56 462.908C1136.79 451.274 1125.39 421.287 1125.39 421.287L1173.84 425.302C1177.64 434.56 1180.38 444.883 1182.41 455.698C1182.76 458.156 1183.12 460.532 1183.56 462.908Z" fill="#050D13"/>
<path d="M1185.06 464.547L1183.12 464.055C1136.26 452.421 1124.15 422.025 1124.06 421.697L1123.36 419.895L1174.63 424.155L1174.9 424.892C1178.43 433.577 1181.35 443.9 1183.47 455.534C1183.91 458.156 1184.36 460.45 1184.71 462.744L1185.06 464.547ZM1127.42 422.68C1130.69 429.153 1144.49 451.274 1181.97 461.27C1181.7 459.631 1181.44 457.828 1181.08 455.944C1179.05 444.801 1176.22 434.888 1172.86 426.449L1127.42 422.68Z" fill="#050D13"/>
<path d="M1345.16 631.03H0V633.488H1345.16V631.03Z" fill="#121212"/>
</g>
</svg>
