<svg width="107" height="12" viewBox="0 0 107 12" fill="none" xmlns="http://www.w3.org/2000/svg">
<path d="M106 7C106.552 7 107 6.55228 107 6C107 5.44772 106.552 5 106 5L106 7ZM11.3333 6.00001C11.3333 3.05449 8.94552 0.666675 6 0.666675C3.05448 0.666676 0.666671 3.05449 0.666672 6.00001C0.666672 8.94553 3.05448 11.3333 6 11.3333C8.94552 11.3333 11.3333 8.94553 11.3333 6.00001ZM104.077 5C103.525 5 103.077 5.44772 103.077 6C103.077 6.55229 103.525 7 104.077 7L104.077 5ZM100.231 7C100.783 7 101.231 6.55229 101.231 6C101.231 5.44772 100.783 5 100.231 5L100.231 7ZM96.3846 5C95.8323 5 95.3846 5.44772 95.3846 6C95.3846 6.55229 95.8323 7 96.3846 7L96.3846 5ZM92.5385 7C93.0907 7 93.5385 6.55229 93.5385 6C93.5385 5.44772 93.0907 5 92.5385 5L92.5385 7ZM88.6923 5C88.14 5 87.6923 5.44772 87.6923 6C87.6923 6.55229 88.14 7 88.6923 7L88.6923 5ZM84.8462 7C85.3984 7 85.8462 6.55229 85.8462 6C85.8462 5.44772 85.3984 5 84.8462 5L84.8462 7ZM81 5C80.4477 5 80 5.44772 80 6C80 6.55229 80.4477 7 81 7L81 5ZM77.1539 7C77.7061 7 78.1539 6.55229 78.1539 6C78.1539 5.44772 77.7061 5 77.1539 5L77.1539 7ZM73.3077 5C72.7554 5 72.3077 5.44772 72.3077 6C72.3077 6.55229 72.7554 7 73.3077 7L73.3077 5ZM69.4615 7C70.0138 7 70.4615 6.55229 70.4615 6C70.4615 5.44772 70.0138 5 69.4615 5L69.4615 7ZM65.6154 5C65.0631 5 64.6154 5.44772 64.6154 6C64.6154 6.55229 65.0631 7 65.6154 7L65.6154 5ZM61.7692 7C62.3215 7 62.7692 6.55229 62.7692 6C62.7692 5.44772 62.3215 5 61.7692 5L61.7692 7ZM57.9231 5C57.3708 5 56.9231 5.44772 56.9231 6C56.9231 6.55229 57.3708 7 57.9231 7L57.9231 5ZM54.0769 7C54.6292 7 55.0769 6.55229 55.0769 6C55.0769 5.44772 54.6292 5 54.0769 5L54.0769 7ZM50.2308 5C49.6785 5 49.2308 5.44772 49.2308 6C49.2308 6.55229 49.6785 7 50.2308 7L50.2308 5ZM46.3846 7.00001C46.9369 7.00001 47.3846 6.55229 47.3846 6.00001C47.3846 5.44772 46.9369 5.00001 46.3846 5.00001L46.3846 7.00001ZM42.5385 5.00001C41.9862 5.00001 41.5385 5.44772 41.5385 6.00001C41.5385 6.55229 41.9862 7.00001 42.5385 7.00001L42.5385 5.00001ZM38.6923 7.00001C39.2446 7.00001 39.6923 6.55229 39.6923 6.00001C39.6923 5.44772 39.2446 5.00001 38.6923 5.00001L38.6923 7.00001ZM34.8462 5.00001C34.2939 5.00001 33.8462 5.44772 33.8462 6.00001C33.8462 6.55229 34.2939 7.00001 34.8462 7.00001L34.8462 5.00001ZM31 7.00001C31.5523 7.00001 32 6.55229 32 6.00001C32 5.44772 31.5523 5.00001 31 5.00001L31 7.00001ZM27.1539 5.00001C26.6016 5.00001 26.1539 5.44772 26.1539 6.00001C26.1539 6.55229 26.6016 7.00001 27.1539 7.00001L27.1539 5.00001ZM23.3077 7.00001C23.86 7.00001 24.3077 6.55229 24.3077 6.00001C24.3077 5.44772 23.86 5.00001 23.3077 5.00001L23.3077 7.00001ZM19.4615 5.00001C18.9093 5.00001 18.4615 5.44772 18.4615 6.00001C18.4615 6.55229 18.9093 7.00001 19.4615 7.00001L19.4615 5.00001ZM15.6154 7.00001C16.1677 7.00001 16.6154 6.55229 16.6154 6.00001C16.6154 5.44772 16.1677 5.00001 15.6154 5.00001L15.6154 7.00001ZM11.7692 5.00001C11.217 5.00001 10.7692 5.44772 10.7692 6.00001C10.7692 6.55229 11.217 7.00001 11.7692 7.00001L11.7692 5.00001ZM7.9231 7.00001C8.47538 7.00001 8.9231 6.55229 8.9231 6.00001C8.9231 5.44772 8.47538 5.00001 7.9231 5.00001L7.9231 7.00001ZM106 5L104.077 5L104.077 7L106 7L106 5ZM100.231 5L96.3846 5L96.3846 7L100.231 7L100.231 5ZM92.5385 5L88.6923 5L88.6923 7L92.5385 7L92.5385 5ZM84.8462 5L81 5L81 7L84.8462 7L84.8462 5ZM77.1539 5L73.3077 5L73.3077 7L77.1539 7L77.1539 5ZM69.4615 5L65.6154 5L65.6154 7L69.4615 7L69.4615 5ZM61.7692 5L57.9231 5L57.9231 7L61.7692 7L61.7692 5ZM54.0769 5L50.2308 5L50.2308 7L54.0769 7L54.0769 5ZM46.3846 5.00001L42.5385 5.00001L42.5385 7.00001L46.3846 7.00001L46.3846 5.00001ZM38.6923 5.00001L34.8462 5.00001L34.8462 7.00001L38.6923 7.00001L38.6923 5.00001ZM31 5.00001L27.1539 5.00001L27.1539 7.00001L31 7.00001L31 5.00001ZM23.3077 5.00001L19.4615 5.00001L19.4615 7.00001L23.3077 7.00001L23.3077 5.00001ZM15.6154 5.00001L11.7692 5.00001L11.7692 7.00001L15.6154 7.00001L15.6154 5.00001ZM7.9231 5.00001L6 5.00001L6 7.00001L7.9231 7.00001L7.9231 5.00001Z" fill="#75CBC8"/>
</svg>
