<svg width="107" height="12" viewBox="0 0 107 12" fill="none" xmlns="http://www.w3.org/2000/svg">
<path d="M106.333 6C106.333 3.05448 103.946 0.666667 101 0.666667C98.0545 0.666666 95.6667 3.05448 95.6667 6C95.6667 8.94552 98.0545 11.3333 101 11.3333C103.946 11.3333 106.333 8.94552 106.333 6ZM1 4.99999C0.447716 4.99999 4.82823e-08 5.44771 0 5.99999C-4.82823e-08 6.55228 0.447716 6.99999 1 6.99999L1 4.99999ZM99.0769 5C98.5246 5 98.0769 5.44771 98.0769 6C98.0769 6.55228 98.5246 7 99.0769 7L99.0769 5ZM95.2308 7C95.7831 7 96.2308 6.55228 96.2308 6C96.2308 5.44771 95.7831 5 95.2308 5L95.2308 7ZM91.3846 5C90.8323 5 90.3846 5.44771 90.3846 6C90.3846 6.55228 90.8323 7 91.3846 7L91.3846 5ZM87.5385 7C88.0907 7 88.5385 6.55228 88.5385 6C88.5385 5.44771 88.0907 5 87.5385 5L87.5385 7ZM83.6923 5C83.14 5 82.6923 5.44771 82.6923 6C82.6923 6.55228 83.14 7 83.6923 7L83.6923 5ZM79.8462 7C80.3984 7 80.8462 6.55228 80.8462 6C80.8462 5.44771 80.3984 5 79.8462 5L79.8462 7ZM76 5C75.4477 5 75 5.44771 75 6C75 6.55228 75.4477 7 76 7L76 5ZM72.1539 7C72.7061 7 73.1539 6.55228 73.1539 6C73.1539 5.44771 72.7061 5 72.1539 5L72.1539 7ZM68.3077 5C67.7554 5 67.3077 5.44771 67.3077 6C67.3077 6.55228 67.7554 7 68.3077 7L68.3077 5ZM64.4615 7C65.0138 7 65.4615 6.55228 65.4615 6C65.4615 5.44771 65.0138 5 64.4615 5L64.4615 7ZM60.6154 5C60.0631 5 59.6154 5.44771 59.6154 6C59.6154 6.55228 60.0631 7 60.6154 7L60.6154 5ZM56.7692 7C57.3215 7 57.7692 6.55228 57.7692 6C57.7692 5.44771 57.3215 5 56.7692 5L56.7692 7ZM52.9231 5C52.3708 5 51.9231 5.44771 51.9231 6C51.9231 6.55228 52.3708 7 52.9231 7L52.9231 5ZM49.0769 7C49.6292 7 50.0769 6.55228 50.0769 6C50.0769 5.44771 49.6292 5 49.0769 5L49.0769 7ZM45.2308 5C44.6785 5 44.2308 5.44771 44.2308 6C44.2308 6.55228 44.6785 7 45.2308 7L45.2308 5ZM41.3846 6.99999C41.9369 6.99999 42.3846 6.55228 42.3846 5.99999C42.3846 5.44771 41.9369 4.99999 41.3846 4.99999L41.3846 6.99999ZM37.5385 4.99999C36.9862 4.99999 36.5385 5.44771 36.5385 5.99999C36.5385 6.55228 36.9862 6.99999 37.5385 6.99999L37.5385 4.99999ZM33.6923 6.99999C34.2446 6.99999 34.6923 6.55228 34.6923 5.99999C34.6923 5.44771 34.2446 4.99999 33.6923 4.99999L33.6923 6.99999ZM29.8462 4.99999C29.2939 4.99999 28.8462 5.44771 28.8462 5.99999C28.8462 6.55228 29.2939 6.99999 29.8462 6.99999L29.8462 4.99999ZM26 6.99999C26.5523 6.99999 27 6.55228 27 5.99999C27 5.44771 26.5523 4.99999 26 4.99999L26 6.99999ZM22.1539 4.99999C21.6016 4.99999 21.1539 5.44771 21.1539 5.99999C21.1539 6.55228 21.6016 6.99999 22.1539 6.99999L22.1539 4.99999ZM18.3077 6.99999C18.86 6.99999 19.3077 6.55228 19.3077 5.99999C19.3077 5.44771 18.86 4.99999 18.3077 4.99999L18.3077 6.99999ZM14.4615 4.99999C13.9093 4.99999 13.4615 5.44771 13.4615 5.99999C13.4615 6.55228 13.9093 6.99999 14.4615 6.99999L14.4615 4.99999ZM10.6154 6.99999C11.1677 6.99999 11.6154 6.55228 11.6154 5.99999C11.6154 5.44771 11.1677 4.99999 10.6154 4.99999L10.6154 6.99999ZM6.76924 4.99999C6.21696 4.99999 5.76924 5.44771 5.76924 5.99999C5.76924 6.55228 6.21696 6.99999 6.76924 6.99999L6.76924 4.99999ZM2.9231 6.99999C3.47538 6.99999 3.9231 6.55228 3.9231 5.99999C3.9231 5.44771 3.47538 4.99999 2.9231 4.99999L2.9231 6.99999ZM101 5L99.0769 5L99.0769 7L101 7L101 5ZM95.2308 5L91.3846 5L91.3846 7L95.2308 7L95.2308 5ZM87.5385 5L83.6923 5L83.6923 7L87.5385 7L87.5385 5ZM79.8462 5L76 5L76 7L79.8462 7L79.8462 5ZM72.1539 5L68.3077 5L68.3077 7L72.1539 7L72.1539 5ZM64.4615 5L60.6154 5L60.6154 7L64.4615 7L64.4615 5ZM56.7692 5L52.9231 5L52.9231 7L56.7692 7L56.7692 5ZM49.0769 5L45.2308 5L45.2308 7L49.0769 7L49.0769 5ZM41.3846 4.99999L37.5385 4.99999L37.5385 6.99999L41.3846 6.99999L41.3846 4.99999ZM33.6923 4.99999L29.8462 4.99999L29.8462 6.99999L33.6923 6.99999L33.6923 4.99999ZM26 4.99999L22.1539 4.99999L22.1539 6.99999L26 6.99999L26 4.99999ZM18.3077 4.99999L14.4615 4.99999L14.4615 6.99999L18.3077 6.99999L18.3077 4.99999ZM10.6154 4.99999L6.76924 4.99999L6.76924 6.99999L10.6154 6.99999L10.6154 4.99999ZM2.9231 4.99999L1 4.99999L1 6.99999L2.9231 6.99999L2.9231 4.99999Z" fill="#75CBC8"/>
</svg>
