<svg width="48" height="48" viewBox="0 0 48 48" fill="none" xmlns="http://www.w3.org/2000/svg">
<path d="M8.25 8.64001C6.42375 8.64001 4.78125 9.64876 3.96 11.28L0.72 17.76C0.25875 18.5138 0 19.395 0 20.28V31.02C0 32.445 1.155 33.6 2.58 33.6H3.93C4.39125 36.3188 6.75 38.4 9.6 38.4C12.45 38.4 14.8087 36.3188 15.27 33.6H32.73C33.1912 36.3188 35.55 38.4 38.4 38.4C41.25 38.4 43.6125 36.3188 44.07 33.6H45.12C46.7062 33.6 48 32.3063 48 30.72V24.36C48 22.005 46.305 20.0363 43.98 19.65L36.03 18.3L29.31 10.35C28.3987 9.26252 27.0675 8.64001 25.65 8.64001H8.25ZM8.25 10.56H17.28V18.24H2.61L5.67 12.15C6.16125 11.1713 7.155 10.56 8.25 10.56ZM19.2 10.56H25.65C26.5012 10.56 27.2925 10.9313 27.84 11.58L33.45 18.24H19.2V10.56ZM9.6 28.8C11.7187 28.8 13.44 30.5213 13.44 32.64C13.44 34.7588 11.7187 36.48 9.6 36.48C7.48125 36.48 5.76 34.7588 5.76 32.64C5.76 30.5213 7.48125 28.8 9.6 28.8ZM38.4 28.8C40.5187 28.8 42.24 30.5213 42.24 32.64C42.24 34.7588 40.5187 36.48 38.4 36.48C36.2812 36.48 34.56 34.7588 34.56 32.64C34.56 30.5213 36.2812 28.8 38.4 28.8Z" fill="#121337"/>
</svg>
