<svg width="70" height="76" viewBox="0 0 70 76" fill="none" xmlns="http://www.w3.org/2000/svg">
<rect width="4.75" height="4.75" fill="#121337"/>
<rect x="42.75" width="4.75" height="4.75" fill="#121337"/>
<rect x="42.75" y="42.75" width="4.75" height="4.75" fill="#121337"/>
<rect y="42.75" width="4.75" height="4.75" fill="#121337"/>
<rect x="14.25" width="4.75" height="4.75" fill="#121337"/>
<rect x="57" width="4.75" height="4.75" fill="#121337"/>
<rect x="57" y="42.75" width="4.75" height="4.75" fill="#121337"/>
<rect x="14.25" y="42.75" width="4.75" height="4.75" fill="#121337"/>
<rect x="28.5" width="4.75" height="4.75" fill="#121337"/>
<rect x="28.5" y="42.75" width="4.75" height="4.75" fill="#121337"/>
<rect x="28.5" y="14.25" width="4.75" height="4.75" fill="#121337"/>
<rect x="28.5" y="57" width="4.75" height="4.75" fill="#121337"/>
<rect x="14.25" y="14.25" width="4.75" height="4.75" fill="#121337"/>
<rect x="57" y="14.25" width="4.75" height="4.75" fill="#121337"/>
<rect x="57" y="57" width="4.75" height="4.75" fill="#121337"/>
<rect x="14.25" y="57" width="4.75" height="4.75" fill="#121337"/>
<rect y="14.25" width="4.75" height="4.75" fill="#121337"/>
<rect x="42.75" y="14.25" width="4.75" height="4.75" fill="#121337"/>
<rect x="42.75" y="57" width="4.75" height="4.75" fill="#121337"/>
<rect y="57" width="4.75" height="4.75" fill="#121337"/>
<rect y="28.5" width="4.75" height="4.75" fill="#121337"/>
<rect x="42.75" y="28.5" width="4.75" height="4.75" fill="#121337"/>
<rect x="42.75" y="71.25" width="4.75" height="4.75" fill="#121337"/>
<rect y="71.25" width="4.75" height="4.75" fill="#121337"/>
<rect x="14.25" y="28.5" width="4.75" height="4.75" fill="#121337"/>
<rect x="57" y="28.5" width="4.75" height="4.75" fill="#121337"/>
<rect x="57" y="71.25" width="4.75" height="4.75" fill="#121337"/>
<rect x="14.25" y="71.25" width="4.75" height="4.75" fill="#121337"/>
<rect x="28.5" y="28.5" width="4.75" height="4.75" fill="#121337"/>
<rect x="28.5" y="71.25" width="4.75" height="4.75" fill="#121337"/>
</svg>
